# xmcd
# 
# Track frame offsets:
#     150
#     10982
#     24436
#     39729
#     58584
#     75790
#     90710
#     108530
#     122101
#     142028
#     162372
#     182655
# 
# Disc length: 2734
# 
# Revision: 2
# Processed by: cddbd v1.5.2PL0 Copyright (c) Steve Scherf et al.
# Submitted via: BonkEnc v1.0.8
# 
DISCID=960aac0c
DTITLE=どぶウサギ - 夢幻夜想曲　Etarnal Nocturne
DYEAR=2005
DGENRE=東方
TTITLE0=蠢々秋月　〜 the Mooned Incects
TTITLE1=もう歌しか聞こえない
TTITLE2=無何有浄化　〜 Pure in Asia
TTITLE3=少女綺想曲　〜 the Dream Duel
TTITLE4=恋色ファイナルマスタースパーク
TTITLE5=Cinderella Cage　〜 とおりゃんせ
TTITLE6=不可視隠月　〜 Pupil of Frenzy
TTITLE7=Voyage 1969
TTITLE8=千年幻想郷　〜 the Brain of the Moon
TTITLE9=竹取飛翔　〜 the Lunatic Princess
TTITLE10=幽玄の槭樹　〜 EternalDream
TTITLE11=無限夜想曲　〜 Eternal Nocturne
EXTD=YEAR: 2005
EXTT0=
EXTT1=
EXTT2=
EXTT3=
EXTT4=
EXTT5=
EXTT6=
EXTT7=
EXTT8=
EXTT9=
EXTT10=
EXTT11=
PLAYORDER=
